# xmcd
#
# Track frame offsets: 
#        151
#        17110
#        28805
#        38510
#        42101
#        51528
#        67793
#        80764
#        92363
#        102912
#        108717
#        118456
#        129933
#
# Disc length: 1858 seconds
#
# Revision: 0
# Processed by: cddbd v1.5.2PL0 Copyright (c) Steve Scherf et al.
# Submitted via: ExactAudioCopy v1.0b3
#
DISCID=aa07400d
DTITLE=Šlāgerkoris Saulgrieži - Līgo, Jānīt
DYEAR=1998
DGENRE=Folk
TTITLE0=Jauni puiši, jaunas meitas
TTITLE1=Labvakar, pupu ziedi
TTITLE2=Jānīt, nāc līgodams
TTITLE3=Jāņu diena atnākusi
TTITLE4=Kas tos Jāņus ielīgoja?
TTITLE5=Visu gadu dziesmas krāju
TTITLE6=Līgot lecu ozolā
TTITLE7=Saļīgosim nu māsiņas
TTITLE8=Sanāciet Jāņa bērni
TTITLE9=Līgo Jānīt!
TTITLE10=Viena pati Jāņu zāle
TTITLE11=Jau vakari Jāņa diena
TTITLE12=Jānim zelta cepurīte
EXTD=
EXTT0=
EXTT1=
EXTT2=
EXTT3=
EXTT4=
EXTT5=
EXTT6=
EXTT7=
EXTT8=
EXTT9=
EXTT10=
EXTT11=
EXTT12=
PLAYORDER=
